<svg xmlns="http://www.w3.org/2000/svg" xmlns:xlink="http://www.w3.org/1999/xlink" width="200" zoomAndPan="magnify" viewBox="0 0 150 149.999998" height="200" preserveAspectRatio="xMidYMid meet" version="1.0"><defs><clipPath id="466d2d89e3"><path d="M 1.816406 1.816406 L 148.066406 1.816406 L 148.066406 148.066406 L 1.816406 148.066406 Z M 1.816406 1.816406 " clip-rule="nonzero"/></clipPath></defs><g clip-path="url(#466d2d89e3)"><path fill="#ffffff" d="M 74.941406 1.816406 C 95.058594 1.816406 112.277344 8.980469 126.589844 23.289062 C 140.902344 37.601562 148.066406 54.824219 148.066406 74.941406 C 148.066406 95.058594 140.902344 112.277344 126.589844 126.589844 C 112.277344 140.902344 95.058594 148.066406 74.941406 148.066406 C 54.824219 148.066406 37.601562 140.902344 23.289062 126.589844 C 8.980469 112.277344 1.816406 95.058594 1.816406 74.941406 C 1.816406 54.824219 8.980469 37.601562 23.289062 23.289062 C 37.601562 8.980469 54.824219 1.816406 74.941406 1.816406 Z M 74.941406 142.84375 C 84.132812 142.84375 92.910156 141.050781 101.28125 137.46875 C 109.652344 133.886719 116.875 129.054688 122.964844 122.964844 C 129.054688 116.875 133.886719 109.636719 137.46875 101.28125 C 141.050781 92.910156 142.84375 84.132812 142.84375 74.941406 C 142.84375 65.746094 141.050781 56.972656 137.46875 48.601562 C 133.886719 40.230469 129.054688 33.003906 122.964844 26.917969 C 116.875 20.828125 109.636719 15.992188 101.28125 12.410156 C 92.910156 8.828125 84.132812 7.039062 74.941406 7.039062 C 65.746094 7.039062 56.972656 8.828125 48.601562 12.410156 C 40.230469 15.992188 33.003906 20.828125 26.917969 26.917969 C 20.828125 33.003906 15.992188 40.242188 12.410156 48.601562 C 8.828125 56.957031 7.039062 65.746094 7.039062 74.941406 C 7.039062 84.132812 8.828125 92.910156 12.410156 101.28125 C 15.992188 109.652344 20.828125 116.875 26.917969 122.964844 C 33.003906 129.054688 40.242188 133.886719 48.601562 137.46875 C 56.957031 141.050781 65.746094 142.84375 74.941406 142.84375 Z M 54.046875 56.660156 C 51.914062 56.660156 50.078125 55.882812 48.539062 54.332031 C 46.988281 52.777344 46.214844 50.945312 46.214844 48.824219 C 46.214844 46.707031 46.988281 44.855469 48.539062 43.316406 C 50.09375 41.765625 51.929688 40.988281 54.046875 40.988281 C 56.183594 40.988281 58.015625 41.765625 59.554688 43.316406 C 61.105469 44.871094 61.882812 46.707031 61.882812 48.824219 C 61.882812 50.945312 61.105469 52.792969 59.554688 54.332031 C 58.015625 55.882812 56.183594 56.660156 54.046875 56.660156 Z M 95.832031 56.660156 C 93.699219 56.660156 91.863281 55.882812 90.328125 54.332031 C 88.773438 52.777344 88 50.945312 88 48.824219 C 88 46.707031 88.773438 44.855469 90.328125 43.316406 C 91.878906 41.765625 93.714844 40.988281 95.832031 40.988281 C 97.96875 40.988281 99.804688 41.765625 101.339844 43.316406 C 102.890625 44.871094 103.667969 46.707031 103.667969 48.824219 C 103.667969 50.945312 102.890625 52.792969 101.339844 54.332031 C 99.804688 55.882812 97.96875 56.660156 95.832031 56.660156 Z M 74.941406 74.941406 C 84.027344 74.941406 92.328125 77.460938 99.816406 82.492188 C 107.308594 87.519531 112.757812 94.25 116.144531 102.652344 L 111.203125 104.683594 C 108.203125 97.234375 103.414062 91.28125 96.832031 86.835938 C 90.253906 82.386719 82.953125 80.164062 74.925781 80.164062 C 66.898438 80.164062 59.597656 82.386719 53.019531 86.835938 C 46.4375 91.28125 41.644531 97.234375 38.660156 104.683594 L 33.722656 102.652344 C 37.109375 94.238281 42.542969 87.519531 50.046875 82.492188 C 57.554688 77.460938 65.851562 74.941406 74.941406 74.941406 Z M 74.941406 74.941406 " fill-opacity="1" fill-rule="nonzero"/></g></svg>