<svg xmlns="http://www.w3.org/2000/svg" xmlns:xlink="http://www.w3.org/1999/xlink" width="200" zoomAndPan="magnify" viewBox="0 0 150 149.999998" height="200" preserveAspectRatio="xMidYMid meet" version="1.0"><defs><clipPath id="126bba3191"><path d="M 2.167969 13.160156 L 147.667969 13.160156 L 147.667969 136.910156 L 2.167969 136.910156 Z M 2.167969 13.160156 " clip-rule="nonzero"/></clipPath><clipPath id="01a10043b8"><path d="M 147.664062 68.160156 L 147.664062 65.269531 L 144.792969 64.953125 C 144.023438 64.875 135.746094 64.042969 125.027344 65.652344 L 125.027344 44.550781 L 121.390625 45.015625 C 115.386719 45.796875 109.8125 46.949219 104.664062 48.4375 C 99.066406 36.542969 89.8125 25.304688 76.945312 14.863281 L 74.917969 13.214844 L 72.890625 14.863281 C 60.023438 25.304688 50.769531 36.542969 45.171875 48.4375 C 40.023438 46.949219 34.449219 45.796875 28.445312 45.015625 L 24.808594 44.550781 L 24.808594 65.652344 C 14.089844 64.042969 5.8125 64.875 5.042969 64.953125 L 2.171875 65.269531 L 2.171875 68.160156 C 2.171875 91.898438 8.539062 109.964844 21.109375 121.878906 C 31.511719 131.730469 45.816406 136.871094 62.695312 136.871094 C 64.023438 136.871094 65.371094 136.832031 66.738281 136.773438 L 71.363281 136.773438 L 70.445312 132.796875 C 68.160156 122.886719 64.375 98.949219 74.917969 79.4375 C 85.460938 98.949219 81.675781 122.886719 79.390625 132.796875 L 78.472656 136.773438 L 83.097656 136.773438 C 84.464844 136.832031 85.816406 136.871094 87.140625 136.871094 C 104.019531 136.871094 118.328125 131.730469 128.726562 121.878906 C 141.296875 109.964844 147.664062 91.898438 147.664062 68.160156 Z M 118.59375 51.9375 L 118.59375 66.886719 C 115.988281 67.492188 113.304688 68.246094 110.609375 69.207031 C 110.039062 64.1875 108.882812 59.257812 107.140625 54.433594 C 110.730469 53.425781 114.539062 52.582031 118.59375 51.9375 Z M 31.242188 51.9375 C 35.292969 52.582031 39.105469 53.429688 42.695312 54.4375 C 40.957031 59.261719 39.796875 64.191406 39.226562 69.210938 C 36.53125 68.25 33.847656 67.496094 31.242188 66.890625 Z M 25.53125 117.191406 C 14.820312 107.050781 9.152344 91.582031 8.644531 71.195312 C 11.984375 71.09375 17.910156 71.148438 24.808594 72.300781 L 24.808594 91.4375 C 24.808594 106.070312 39.285156 120.703125 53.542969 129.828125 C 44.125 128.585938 33.902344 125.132812 25.53125 117.191406 Z M 31.242188 91.441406 L 31.242188 73.65625 C 33.734375 74.300781 36.28125 75.09375 38.824219 76.085938 C 38.699219 95.441406 47.042969 111.964844 54.378906 122.699219 C 41.792969 113.976562 31.242188 101.660156 31.242188 91.441406 Z M 62.148438 122.402344 C 55.3125 113.179688 46.125 97.476562 45.316406 79.074219 C 51.917969 82.636719 58.117188 87.773438 62.796875 95.152344 C 60.984375 105.019531 61.253906 114.660156 62.148438 122.402344 Z M 64.832031 86.90625 C 59.242188 79.921875 52.4375 75.09375 45.441406 71.777344 C 45.867188 66.558594 46.996094 61.433594 48.828125 56.414062 C 58.625 60.023438 66.367188 65.179688 71.972656 71.863281 C 68.765625 76.652344 66.457031 81.75 64.832031 86.90625 Z M 74.917969 65.484375 C 68.871094 59.074219 60.992188 54.0625 51.355469 50.480469 C 56.269531 40.328125 64.132812 30.664062 74.917969 21.542969 C 85.703125 30.664062 93.566406 40.328125 98.480469 50.480469 C 88.847656 54.0625 80.964844 59.074219 74.917969 65.484375 Z M 77.863281 71.863281 C 83.46875 65.179688 91.210938 60.023438 101.003906 56.414062 C 102.839844 61.433594 103.964844 66.558594 104.390625 71.777344 C 97.394531 75.09375 90.589844 79.921875 85 86.90625 C 83.378906 81.75 81.070312 76.652344 77.863281 71.863281 Z M 87.039062 95.152344 C 91.71875 87.773438 97.917969 82.636719 104.519531 79.074219 C 103.710938 97.480469 94.527344 113.175781 87.6875 122.402344 C 88.582031 114.660156 88.855469 105.019531 87.039062 95.152344 Z M 111.011719 76.085938 C 113.554688 75.09375 116.101562 74.300781 118.59375 73.65625 L 118.59375 91.441406 C 118.59375 101.660156 108.042969 113.976562 95.457031 122.703125 C 102.792969 111.964844 111.140625 95.441406 111.011719 76.085938 Z M 124.304688 117.191406 C 115.933594 125.132812 105.710938 128.589844 96.292969 129.828125 C 110.550781 120.703125 125.027344 106.074219 125.027344 91.4375 L 125.027344 72.300781 C 131.925781 71.148438 137.855469 71.089844 141.191406 71.195312 C 140.6875 91.582031 135.015625 107.050781 124.304688 117.191406 Z M 124.304688 117.191406 " clip-rule="nonzero"/></clipPath></defs><g clip-path="url(#126bba3191)"><g clip-path="url(#01a10043b8)"><path fill="#ffffff" d="M 2.171875 13.214844 L 2.171875 136.871094 L 147.664062 136.871094 L 147.664062 13.214844 Z M 2.171875 13.214844 " fill-opacity="1" fill-rule="nonzero"/></g></g></svg>