<svg xmlns="http://www.w3.org/2000/svg" xmlns:xlink="http://www.w3.org/1999/xlink" width="200" zoomAndPan="magnify" viewBox="0 0 150 149.999998" height="200" preserveAspectRatio="xMidYMid meet" version="1.0"><defs><clipPath id="b44860da0b"><path d="M 2.167969 13.160156 L 147.667969 13.160156 L 147.667969 136.910156 L 2.167969 136.910156 Z M 2.167969 13.160156 " clip-rule="nonzero"/></clipPath><clipPath id="4bdfd1555b"><path d="M 147.664062 68.160156 L 147.664062 65.269531 L 144.792969 64.953125 C 144.023438 64.875 135.746094 64.042969 125.027344 65.652344 L 125.027344 44.550781 L 121.390625 45.015625 C 115.386719 45.796875 109.8125 46.949219 104.664062 48.4375 C 99.066406 36.542969 89.8125 25.304688 76.945312 14.863281 L 74.917969 13.214844 L 72.890625 14.863281 C 60.023438 25.304688 50.769531 36.542969 45.171875 48.4375 C 40.023438 46.949219 34.449219 45.796875 28.445312 45.015625 L 24.808594 44.550781 L 24.808594 65.652344 C 14.089844 64.042969 5.8125 64.875 5.042969 64.953125 L 2.171875 65.269531 L 2.171875 68.160156 C 2.171875 91.898438 8.539062 109.964844 21.109375 121.878906 C 31.511719 131.730469 45.816406 136.871094 62.695312 136.871094 C 64.023438 136.871094 65.371094 136.832031 66.738281 136.773438 L 71.363281 136.773438 L 70.445312 132.796875 C 68.160156 122.886719 64.375 98.949219 74.917969 79.4375 C 85.460938 98.949219 81.675781 122.886719 79.390625 132.796875 L 78.472656 136.773438 L 83.097656 136.773438 C 84.464844 136.832031 85.816406 136.871094 87.140625 136.871094 C 104.019531 136.871094 118.328125 131.730469 128.726562 121.878906 C 141.296875 109.964844 147.664062 91.898438 147.664062 68.160156 Z M 118.59375 51.9375 L 118.59375 66.886719 C 115.988281 67.492188 113.304688 68.246094 110.609375 69.207031 C 110.039062 64.1875 108.882812 59.257812 107.140625 54.433594 C 110.730469 53.425781 114.539062 52.582031 118.59375 51.9375 Z M 31.242188 51.9375 C 35.292969 52.582031 39.105469 53.429688 42.695312 54.4375 C 40.957031 59.261719 39.796875 64.191406 39.226562 69.210938 C 36.53125 68.25 33.847656 67.496094 31.242188 66.890625 Z M 25.53125 117.191406 C 14.820312 107.050781 9.152344 91.582031 8.644531 71.195312 C 11.984375 71.09375 17.910156 71.148438 24.808594 72.300781 L 24.808594 91.4375 C 24.808594 106.070312 39.285156 120.703125 53.542969 129.828125 C 44.125 128.585938 33.902344 125.132812 25.53125 117.191406 Z M 31.242188 91.441406 L 31.242188 73.65625 C 33.734375 74.300781 36.28125 75.09375 38.824219 76.085938 C 38.699219 95.441406 47.042969 111.964844 54.378906 122.699219 C 41.792969 113.976562 31.242188 101.660156 31.242188 91.441406 Z M 62.148438 122.402344 C 55.3125 113.179688 46.125 97.476562 45.316406 79.074219 C 51.917969 82.636719 58.117188 87.773438 62.796875 95.152344 C 60.984375 105.019531 61.253906 114.660156 62.148438 122.402344 Z M 64.832031 86.90625 C 59.242188 79.921875 52.4375 75.09375 45.441406 71.777344 C 45.867188 66.558594 46.996094 61.433594 48.828125 56.414062 C 58.625 60.023438 66.367188 65.179688 71.972656 71.863281 C 68.765625 76.652344 66.457031 81.75 64.832031 86.90625 Z M 74.917969 65.484375 C 68.871094 59.074219 60.992188 54.0625 51.355469 50.480469 C 56.269531 40.328125 64.132812 30.664062 74.917969 21.542969 C 85.703125 30.664062 93.566406 40.328125 98.480469 50.480469 C 88.847656 54.0625 80.964844 59.074219 74.917969 65.484375 Z M 77.863281 71.863281 C 83.46875 65.179688 91.210938 60.023438 101.003906 56.414062 C 102.839844 61.433594 103.964844 66.558594 104.390625 71.777344 C 97.394531 75.09375 90.589844 79.921875 85 86.90625 C 83.378906 81.75 81.070312 76.652344 77.863281 71.863281 Z M 87.039062 95.152344 C 91.71875 87.773438 97.917969 82.636719 104.519531 79.074219 C 103.710938 97.480469 94.527344 113.175781 87.6875 122.402344 C 88.582031 114.660156 88.855469 105.019531 87.039062 95.152344 Z M 111.011719 76.085938 C 113.554688 75.09375 116.101562 74.300781 118.59375 73.65625 L 118.59375 91.441406 C 118.59375 101.660156 108.042969 113.976562 95.457031 122.703125 C 102.792969 111.964844 111.140625 95.441406 111.011719 76.085938 Z M 124.304688 117.191406 C 115.933594 125.132812 105.710938 128.589844 96.292969 129.828125 C 110.550781 120.703125 125.027344 106.074219 125.027344 91.4375 L 125.027344 72.300781 C 131.925781 71.148438 137.855469 71.089844 141.191406 71.195312 C 140.6875 91.582031 135.015625 107.050781 124.304688 117.191406 Z M 124.304688 117.191406 " clip-rule="nonzero"/></clipPath><linearGradient x1="3025" gradientTransform="matrix(0.265899, 0, 0, 0.266329, -729.426627, -649.313749)" y1="2487.629905" x2="3025" gradientUnits="userSpaceOnUse" y2="2951.929902" id="058b1f9cc0"><stop stop-opacity="1" stop-color="rgb(100%, 28.199768%, 51.399231%)" offset="0"/><stop stop-opacity="1" stop-color="rgb(100%, 28.199768%, 51.399231%)" offset="0.125"/><stop stop-opacity="1" stop-color="rgb(100%, 28.199768%, 51.399231%)" offset="0.15625"/><stop stop-opacity="1" stop-color="rgb(100%, 28.375244%, 51.51825%)" offset="0.171875"/><stop stop-opacity="1" stop-color="rgb(100%, 28.652954%, 51.707458%)" offset="0.179688"/><stop stop-opacity="1" stop-color="rgb(100%, 28.858948%, 51.847839%)" offset="0.1875"/><stop stop-opacity="1" stop-color="rgb(100%, 29.064941%, 51.986694%)" offset="0.195312"/><stop stop-opacity="1" stop-color="rgb(100%, 29.270935%, 52.127075%)" offset="0.203125"/><stop stop-opacity="1" stop-color="rgb(100%, 29.476929%, 52.26593%)" offset="0.210938"/><stop stop-opacity="1" stop-color="rgb(100%, 29.682922%, 52.406311%)" offset="0.21875"/><stop stop-opacity="1" stop-color="rgb(100%, 29.88739%, 52.545166%)" offset="0.226563"/><stop stop-opacity="1" stop-color="rgb(100%, 30.093384%, 52.685547%)" offset="0.234375"/><stop stop-opacity="1" stop-color="rgb(100%, 30.299377%, 52.825928%)" offset="0.242188"/><stop stop-opacity="1" stop-color="rgb(100%, 30.505371%, 52.964783%)" offset="0.25"/><stop stop-opacity="1" stop-color="rgb(100%, 30.711365%, 53.105164%)" offset="0.257813"/><stop stop-opacity="1" stop-color="rgb(100%, 30.915833%, 53.244019%)" offset="0.265625"/><stop stop-opacity="1" stop-color="rgb(100%, 31.121826%, 53.384399%)" offset="0.273438"/><stop stop-opacity="1" stop-color="rgb(100%, 31.32782%, 53.523254%)" offset="0.28125"/><stop stop-opacity="1" stop-color="rgb(100%, 31.533813%, 53.663635%)" offset="0.289063"/><stop stop-opacity="1" stop-color="rgb(100%, 31.739807%, 53.80249%)" offset="0.296875"/><stop stop-opacity="1" stop-color="rgb(100%, 31.944275%, 53.942871%)" offset="0.304688"/><stop stop-opacity="1" stop-color="rgb(100%, 32.150269%, 54.081726%)" offset="0.3125"/><stop stop-opacity="1" stop-color="rgb(100%, 32.356262%, 54.222107%)" offset="0.320313"/><stop stop-opacity="1" stop-color="rgb(100%, 32.562256%, 54.360962%)" offset="0.328125"/><stop stop-opacity="1" stop-color="rgb(100%, 32.76825%, 54.501343%)" offset="0.335938"/><stop stop-opacity="1" stop-color="rgb(100%, 32.972717%, 54.640198%)" offset="0.34375"/><stop stop-opacity="1" stop-color="rgb(100%, 33.178711%, 54.780579%)" offset="0.351563"/><stop stop-opacity="1" stop-color="rgb(100%, 33.384705%, 54.919434%)" offset="0.359375"/><stop stop-opacity="1" stop-color="rgb(100%, 33.590698%, 55.059814%)" offset="0.367188"/><stop stop-opacity="1" stop-color="rgb(100%, 33.796692%, 55.200195%)" offset="0.375"/><stop stop-opacity="1" stop-color="rgb(100%, 34.00116%, 55.33905%)" offset="0.382812"/><stop stop-opacity="1" stop-color="rgb(100%, 34.207153%, 55.479431%)" offset="0.390625"/><stop stop-opacity="1" stop-color="rgb(100%, 34.413147%, 55.618286%)" offset="0.398438"/><stop stop-opacity="1" stop-color="rgb(100%, 34.619141%, 55.758667%)" offset="0.40625"/><stop stop-opacity="1" stop-color="rgb(100%, 34.825134%, 55.897522%)" offset="0.414063"/><stop stop-opacity="1" stop-color="rgb(100%, 35.029602%, 56.037903%)" offset="0.421875"/><stop stop-opacity="1" stop-color="rgb(100%, 35.235596%, 56.176758%)" offset="0.429688"/><stop stop-opacity="1" stop-color="rgb(100%, 35.441589%, 56.317139%)" offset="0.4375"/><stop stop-opacity="1" stop-color="rgb(100%, 35.647583%, 56.455994%)" offset="0.445313"/><stop stop-opacity="1" stop-color="rgb(100%, 35.853577%, 56.596375%)" offset="0.453125"/><stop stop-opacity="1" stop-color="rgb(100%, 36.058044%, 56.735229%)" offset="0.460938"/><stop stop-opacity="1" stop-color="rgb(100%, 36.264038%, 56.87561%)" offset="0.46875"/><stop stop-opacity="1" stop-color="rgb(100%, 36.470032%, 57.014465%)" offset="0.476563"/><stop stop-opacity="1" stop-color="rgb(100%, 36.676025%, 57.154846%)" offset="0.484375"/><stop stop-opacity="1" stop-color="rgb(100%, 36.882019%, 57.295227%)" offset="0.492188"/><stop stop-opacity="1" stop-color="rgb(100%, 37.086487%, 57.434082%)" offset="0.5"/><stop stop-opacity="1" stop-color="rgb(100%, 37.29248%, 57.574463%)" offset="0.507813"/><stop stop-opacity="1" stop-color="rgb(100%, 37.498474%, 57.713318%)" offset="0.515625"/><stop stop-opacity="1" stop-color="rgb(100%, 37.704468%, 57.853699%)" offset="0.523438"/><stop stop-opacity="1" stop-color="rgb(100%, 37.910461%, 57.992554%)" offset="0.53125"/><stop stop-opacity="1" stop-color="rgb(100%, 38.116455%, 58.132935%)" offset="0.539063"/><stop stop-opacity="1" stop-color="rgb(100%, 38.320923%, 58.27179%)" offset="0.546875"/><stop stop-opacity="1" stop-color="rgb(100%, 38.526917%, 58.41217%)" offset="0.554688"/><stop stop-opacity="1" stop-color="rgb(100%, 38.73291%, 58.551025%)" offset="0.5625"/><stop stop-opacity="1" stop-color="rgb(100%, 38.938904%, 58.691406%)" offset="0.570313"/><stop stop-opacity="1" stop-color="rgb(100%, 39.144897%, 58.830261%)" offset="0.578125"/><stop stop-opacity="1" stop-color="rgb(100%, 39.349365%, 58.970642%)" offset="0.585938"/><stop stop-opacity="1" stop-color="rgb(100%, 39.555359%, 59.109497%)" offset="0.59375"/><stop stop-opacity="1" stop-color="rgb(100%, 39.761353%, 59.249878%)" offset="0.601563"/><stop stop-opacity="1" stop-color="rgb(100%, 39.967346%, 59.388733%)" offset="0.609375"/><stop stop-opacity="1" stop-color="rgb(100%, 40.17334%, 59.529114%)" offset="0.617188"/><stop stop-opacity="1" stop-color="rgb(100%, 40.377808%, 59.669495%)" offset="0.625"/><stop stop-opacity="1" stop-color="rgb(100%, 40.583801%, 59.80835%)" offset="0.632813"/><stop stop-opacity="1" stop-color="rgb(100%, 40.789795%, 59.94873%)" offset="0.640625"/><stop stop-opacity="1" stop-color="rgb(100%, 40.995789%, 60.087585%)" offset="0.648438"/><stop stop-opacity="1" stop-color="rgb(100%, 41.201782%, 60.227966%)" offset="0.65625"/><stop stop-opacity="1" stop-color="rgb(100%, 41.40625%, 60.366821%)" offset="0.664063"/><stop stop-opacity="1" stop-color="rgb(100%, 41.612244%, 60.507202%)" offset="0.671875"/><stop stop-opacity="1" stop-color="rgb(100%, 41.818237%, 60.646057%)" offset="0.679688"/><stop stop-opacity="1" stop-color="rgb(100%, 42.024231%, 60.786438%)" offset="0.6875"/><stop stop-opacity="1" stop-color="rgb(100%, 42.230225%, 60.925293%)" offset="0.695313"/><stop stop-opacity="1" stop-color="rgb(100%, 42.434692%, 61.065674%)" offset="0.703125"/><stop stop-opacity="1" stop-color="rgb(100%, 42.640686%, 61.204529%)" offset="0.710938"/><stop stop-opacity="1" stop-color="rgb(100%, 42.84668%, 61.34491%)" offset="0.71875"/><stop stop-opacity="1" stop-color="rgb(100%, 43.052673%, 61.483765%)" offset="0.726563"/><stop stop-opacity="1" stop-color="rgb(100%, 43.258667%, 61.624146%)" offset="0.734375"/><stop stop-opacity="1" stop-color="rgb(100%, 43.463135%, 61.763%)" offset="0.742188"/><stop stop-opacity="1" stop-color="rgb(100%, 43.669128%, 61.903381%)" offset="0.75"/><stop stop-opacity="1" stop-color="rgb(100%, 43.875122%, 62.043762%)" offset="0.757812"/><stop stop-opacity="1" stop-color="rgb(100%, 44.081116%, 62.182617%)" offset="0.765625"/><stop stop-opacity="1" stop-color="rgb(100%, 44.287109%, 62.322998%)" offset="0.773438"/><stop stop-opacity="1" stop-color="rgb(100%, 44.491577%, 62.461853%)" offset="0.78125"/><stop stop-opacity="1" stop-color="rgb(100%, 44.697571%, 62.602234%)" offset="0.789062"/><stop stop-opacity="1" stop-color="rgb(100%, 44.903564%, 62.741089%)" offset="0.796875"/><stop stop-opacity="1" stop-color="rgb(100%, 45.109558%, 62.88147%)" offset="0.804688"/><stop stop-opacity="1" stop-color="rgb(100%, 45.315552%, 63.020325%)" offset="0.8125"/><stop stop-opacity="1" stop-color="rgb(100%, 45.52002%, 63.160706%)" offset="0.820312"/><stop stop-opacity="1" stop-color="rgb(100%, 45.726013%, 63.299561%)" offset="0.828125"/><stop stop-opacity="1" stop-color="rgb(100%, 45.932007%, 63.439941%)" offset="0.835938"/><stop stop-opacity="1" stop-color="rgb(100%, 46.138%, 63.578796%)" offset="0.84375"/><stop stop-opacity="1" stop-color="rgb(100%, 46.343994%, 63.719177%)" offset="0.851562"/><stop stop-opacity="1" stop-color="rgb(100%, 46.549988%, 63.858032%)" offset="0.859375"/><stop stop-opacity="1" stop-color="rgb(100%, 46.754456%, 63.998413%)" offset="0.867188"/><stop stop-opacity="1" stop-color="rgb(100%, 46.960449%, 64.138794%)" offset="0.875"/><stop stop-opacity="1" stop-color="rgb(100%, 47.166443%, 64.277649%)" offset="0.882812"/><stop stop-opacity="1" stop-color="rgb(100%, 47.372437%, 64.41803%)" offset="0.890625"/><stop stop-opacity="1" stop-color="rgb(100%, 47.57843%, 64.556885%)" offset="0.898438"/><stop stop-opacity="1" stop-color="rgb(100%, 47.782898%, 64.697266%)" offset="0.90625"/><stop stop-opacity="1" stop-color="rgb(100%, 47.988892%, 64.836121%)" offset="0.914062"/><stop stop-opacity="1" stop-color="rgb(100%, 48.194885%, 64.976501%)" offset="0.921875"/><stop stop-opacity="1" stop-color="rgb(100%, 48.400879%, 65.115356%)" offset="0.929688"/><stop stop-opacity="1" stop-color="rgb(100%, 48.606873%, 65.255737%)" offset="0.9375"/><stop stop-opacity="1" stop-color="rgb(100%, 48.81134%, 65.394592%)" offset="0.945312"/><stop stop-opacity="1" stop-color="rgb(100%, 49.017334%, 65.534973%)" offset="0.953125"/><stop stop-opacity="1" stop-color="rgb(100%, 49.223328%, 65.673828%)" offset="0.960938"/><stop stop-opacity="1" stop-color="rgb(100%, 49.429321%, 65.814209%)" offset="0.96875"/><stop stop-opacity="1" stop-color="rgb(100%, 49.635315%, 65.953064%)" offset="0.976562"/><stop stop-opacity="1" stop-color="rgb(100%, 49.839783%, 66.093445%)" offset="0.984375"/><stop stop-opacity="1" stop-color="rgb(100%, 50.045776%, 66.2323%)" offset="0.992188"/><stop stop-opacity="1" stop-color="rgb(100%, 50.25177%, 66.372681%)" offset="1"/></linearGradient></defs><g clip-path="url(#b44860da0b)"><g clip-path="url(#4bdfd1555b)"><path fill="url(#058b1f9cc0)" d="M 2.171875 13.214844 L 2.171875 136.871094 L 147.664062 136.871094 L 147.664062 13.214844 Z M 2.171875 13.214844 " fill-rule="nonzero"/></g></g></svg>