<svg xmlns="http://www.w3.org/2000/svg" xmlns:xlink="http://www.w3.org/1999/xlink" width="200" zoomAndPan="magnify" viewBox="0 0 150 149.999998" height="200" preserveAspectRatio="xMidYMid meet" version="1.0"><defs><clipPath id="97de211a5e"><path d="M 1.953125 1.953125 L 148.203125 1.953125 L 148.203125 148.203125 L 1.953125 148.203125 Z M 1.953125 1.953125 " clip-rule="nonzero"/></clipPath></defs><g clip-path="url(#97de211a5e)"><path fill="#ffffff" d="M 75.078125 1.953125 C 95.191406 1.953125 112.414062 9.113281 126.726562 23.425781 C 141.039062 37.738281 148.203125 54.960938 148.203125 75.078125 C 148.203125 95.191406 141.039062 112.414062 126.726562 126.726562 C 112.414062 141.039062 95.191406 148.203125 75.078125 148.203125 C 54.960938 148.203125 37.738281 141.039062 23.425781 126.726562 C 9.113281 112.414062 1.953125 95.191406 1.953125 75.078125 C 1.953125 54.960938 9.113281 37.738281 23.425781 23.425781 C 37.738281 9.113281 54.960938 1.953125 75.078125 1.953125 Z M 75.078125 142.976562 C 84.269531 142.976562 93.042969 141.1875 101.417969 137.605469 C 109.789062 134.023438 117.011719 129.1875 123.101562 123.101562 C 129.1875 117.011719 134.023438 109.773438 137.605469 101.417969 C 141.1875 93.042969 142.976562 84.269531 142.976562 75.078125 C 142.976562 65.882812 141.1875 57.109375 137.605469 48.738281 C 134.023438 40.363281 129.1875 33.140625 123.101562 27.050781 C 117.011719 20.964844 109.773438 16.128906 101.417969 12.546875 C 93.042969 8.964844 84.269531 7.175781 75.078125 7.175781 C 65.882812 7.175781 57.109375 8.964844 48.738281 12.546875 C 40.363281 16.128906 33.140625 20.964844 27.050781 27.050781 C 20.964844 33.140625 16.128906 40.378906 12.546875 48.738281 C 8.964844 57.09375 7.175781 65.882812 7.175781 75.078125 C 7.175781 84.269531 8.964844 93.042969 12.546875 101.417969 C 16.128906 109.789062 20.964844 117.011719 27.050781 123.101562 C 33.140625 129.1875 40.378906 134.023438 48.738281 137.605469 C 57.09375 141.1875 65.882812 142.976562 75.078125 142.976562 Z M 54.183594 56.796875 C 52.050781 56.796875 50.214844 56.019531 48.675781 54.46875 C 47.125 52.914062 46.347656 51.078125 46.347656 48.960938 C 46.347656 46.839844 47.125 44.992188 48.675781 43.453125 C 50.230469 41.902344 52.0625 41.125 54.183594 41.125 C 56.316406 41.125 58.152344 41.902344 59.691406 43.453125 C 61.242188 45.003906 62.019531 46.839844 62.019531 48.960938 C 62.019531 51.078125 61.242188 52.929688 59.691406 54.46875 C 58.152344 56.019531 56.316406 56.796875 54.183594 56.796875 Z M 95.96875 56.796875 C 93.835938 56.796875 92 56.019531 90.460938 54.46875 C 88.910156 52.914062 88.132812 51.078125 88.132812 48.960938 C 88.132812 46.839844 88.910156 44.992188 90.460938 43.453125 C 92.015625 41.902344 93.851562 41.125 95.96875 41.125 C 98.101562 41.125 99.9375 41.902344 101.476562 43.453125 C 103.027344 45.003906 103.804688 46.839844 103.804688 48.960938 C 103.804688 51.078125 103.027344 52.929688 101.476562 54.46875 C 99.9375 56.019531 98.101562 56.796875 95.96875 56.796875 Z M 75.078125 116.863281 C 86.582031 116.863281 96.433594 112.773438 104.59375 104.59375 C 112.773438 96.433594 116.863281 86.582031 116.863281 75.078125 L 122.085938 75.078125 C 122.085938 88.042969 117.488281 99.117188 108.296875 108.296875 C 99.117188 117.488281 88.042969 122.085938 75.078125 122.085938 C 62.109375 122.085938 51.035156 117.488281 41.855469 108.296875 C 32.664062 99.117188 28.066406 88.042969 28.066406 75.078125 L 33.289062 75.078125 C 33.289062 86.582031 37.378906 96.433594 45.558594 104.59375 C 53.722656 112.773438 63.570312 116.863281 75.078125 116.863281 Z M 75.078125 116.863281 " fill-opacity="1" fill-rule="nonzero"/></g></svg>